<svg xmlns="http://www.w3.org/2000/svg" version="1.1" xmlns:xlink="http://www.w3.org/1999/xlink" xmlns:svgjs="http://svgjs.dev/svgjs" width="100%" height="100%" viewBox="0 0 1000 600"><rect width="1000" height="600" x="0" y="0" fill="#1f2327"/><g><rect width="333.3333333333333" height="333.3333333333333" rx="13.333333333333334" ry="13.333333333333334" y="174.25207052564215" fill="#ffffff" transform="matrix(0.8222073102718742,0,0,0.8222073102718742,0,19.694172652077413)" x="152.0298614501953"/><path d="M268.33792892453414 265.91872869142423L268.33792892453414 265.91872869142423Q271.07101672416513 265.91872869142423 272.37940981973316 266.6165383423938Q273.6878029153012 267.28527259123973 275.3741762384778 269.3787015441486L275.3741762384778 269.3787015441486L362.25147778419546 382.4238650012271Q361.9316483608344 379.690777201596 361.81534675233945 377.13214181470744Q361.72812054596824 374.57350642781887 361.72812054596824 372.16024805154893L361.72812054596824 372.16024805154893L361.72812054596824 265.91872869142423L379.52226664569355 265.91872869142423L379.52226664569355 415.91872824776885L369.2586496960154 415.91872824776885Q366.8453913197455 415.91872824776885 365.21716880081635 415.0755415861805Q363.5889462818873 414.2323549245923 362.0188745672056 412.25522758017837L362.0188745672056 412.25522758017837L275.25787462998284 299.3263657315948Q275.461402444849 301.94315192273086 275.57770405334395 304.44363650537207Q275.6649302597151 306.94412108801316 275.6649302597151 309.03755004092204L275.6649302597151 309.03755004092204L275.6649302597151 415.91872824776885L257.8707841599898 415.91872824776885L257.8707841599898 265.91872869142423L268.33792892453414 265.91872869142423Z " fill="#1f2327" transform="matrix(0.8222073102718742,0,0,0.8222073102718742,0,19.694172652077413)"/><path d="M578.8794405576159 269.99189483573883L578.8794405576159 269.99189483573883Q581.5383129552341 269.99189483573883 582.8111774009024 270.67075587342856Q584.0840418465707 271.32133103454794 585.7246226876543 273.3579141476172L585.7246226876543 273.3579141476172L670.2428218800289 383.3334022533578Q669.9316772377545 380.6745298557396 669.8185337314728 378.1853727175438Q669.7336761017616 375.69621557934806 669.7336761017616 373.34848782400434L669.7336761017616 373.34848782400434L669.7336761017616 269.99189483573883L687.0446325628504 269.99189483573883L687.0446325628504 415.9187320624661L677.059718133497 415.9187320624661Q674.7119903781532 415.9187320624661 673.1279812902104 415.0984416419243Q671.5439722022677 414.2781512213825 670.0165348674657 412.35471161459486L670.0165348674657 412.35471161459486L585.6114791813727 302.492367015136Q585.8094803173656 305.03809590647256 585.9226238236472 307.4706812915275Q586.0074814533584 309.90326667658246 586.0074814533584 311.9398497896517L586.0074814533584 311.9398497896517L586.0074814533584 415.9187320624661L568.6965249922696 415.9187320624661L568.6965249922696 269.99189483573883L578.8794405576159 269.99189483573883ZM721.8645466210208 312.7601402101935L739.9957935026515 312.7601402101935L739.9957935026515 415.9187320624661L721.8645466210208 415.9187320624661L721.8645466210208 312.7601402101935ZM744.06895972879 280.37281153707806L744.06895972879 280.37281153707806Q744.06895972879 283.0316839346963 742.9940964191146 285.3228399368992Q741.9192331094391 287.6139959391021 740.1372228855035 289.3960061630377Q738.3552126615679 291.17801638697335 736.0074849062241 292.1963079435079Q733.6597571508804 293.2145995000426 731.0291706298326 293.2145995000426L731.0291706298326 293.2145995000426Q728.3702982322144 293.2145995000426 726.0791422300115 292.1963079435079Q723.7879862278086 291.17801638697335 722.005976003873 289.3960061630377Q720.2239657799373 287.6139959391021 719.2056742234026 285.3228399368992Q718.1873826668681 283.0316839346963 718.1873826668681 280.37281153707806L718.1873826668681 280.37281153707806Q718.1873826668681 277.74222501603026 719.2056742234026 275.33792550754566Q720.2239657799373 272.96191187563153 722.005976003873 271.1799016516959Q723.7879862278086 269.3978914277603 726.0791422300115 268.37959987122565Q728.3702982322144 267.36130831469103 731.0291706298326 267.36130831469103L731.0291706298326 267.36130831469103Q733.6597571508804 267.36130831469103 736.0074849062241 268.37959987122565Q738.3552126615679 269.3978914277603 740.1372228855035 271.1799016516959Q741.9192331094391 272.96191187563153 742.9940964191146 275.33792550754566Q744.06895972879 277.74222501603026 744.06895972879 280.37281153707806ZM772.5811233117598 265.9187286096003L790.7972278231016 265.9187286096003L790.7972278231016 354.1989493858391L795.492683333789 354.1989493858391Q797.5292664468584 354.1989493858391 798.830416769097 353.66151773100137Q800.1598529679061 353.0958001995932 801.8004338089897 351.37036172879846L801.8004338089897 351.37036172879846L834.385763618098 316.4373041643463Q835.9132009529001 314.79672332326277 837.4406382877019 313.7784317667281Q838.9680756225039 312.7601402101935 841.5138045138405 312.7601402101935L841.5138045138405 312.7601402101935L858.0044705543876 312.7601402101935L820.0165383203315 353.18065782930444Q818.6022444918112 354.9343821766696 817.2162365398613 356.23553249890836Q815.8585144644818 357.5649686977174 814.1047901171166 358.5832602542521L814.1047901171166 358.5832602542521Q815.943372094193 359.7995529467795 817.4142376758541 361.38356203472233Q818.9133891340857 362.96757112266505 820.2145394563244 365.0041542357344L820.2145394563244 365.0041542357344L860.550199445724 415.9187320624661L844.2575345411699 415.9187320624661Q842.0229502921078 415.9187320624661 840.4389412041651 415.0418698887835Q838.8549321162222 414.19329359167136 837.4406382877019 412.35471161459486L837.4406382877019 412.35471161459486L803.5258722797845 370.09561201840756Q801.9984349449826 367.9458853990566 800.4709976101806 367.2953102379373Q798.9435602753787 366.64473507681794 795.8886856057748 366.64473507681794L795.8886856057748 366.64473507681794L790.7972278231016 366.64473507681794L790.7972278231016 415.9187320624661L772.5811233117598 415.9187320624661L772.5811233117598 265.9187286096003ZM896.8126932089853 415.9187320624661L878.6814463273547 415.9187320624661L878.6814463273547 265.9187286096003L896.8126932089853 265.9187286096003L896.8126932089853 326.62021972969274Q903.4315883264603 319.57703646366144 911.4647772724559 315.3624408546709Q919.4979662184512 311.1478452456803 929.9920264260721 311.1478452456803L929.9920264260721 311.1478452456803Q938.4495035206237 311.1478452456803 944.9269692552467 313.94814702615054Q951.3761491132994 316.7484488066208 955.7038882285717 321.86819246586435Q960.0316273438439 327.01622200167844 962.2662115929058 334.2574064037025Q964.5290817185385 341.4703049291561 964.5290817185385 350.23892666598215L964.5290817185385 350.23892666598215L964.5290817185385 415.9187320624661L946.3978348369079 415.9187320624661L946.3978348369079 350.23892666598215Q946.3978348369079 338.5285737658338 941.051804165101 332.0511080312108Q935.7057734932941 325.60192817315806 924.7025675074061 325.60192817315806L924.7025675074061 325.60192817315806Q916.6693785614107 325.60192817315806 909.6827670485202 329.4770932633038Q902.6961555356298 333.323972476879 896.8126932089853 339.9428675943542L896.8126932089853 339.9428675943542L896.8126932089853 415.9187320624661ZM993.9463933517611 312.7601402101935L1012.0776402333918 312.7601402101935L1012.0776402333918 415.9187320624661L993.9463933517611 415.9187320624661L993.9463933517611 312.7601402101935ZM1016.1508064595303 280.37281153707806L1016.1508064595303 280.37281153707806Q1016.1508064595303 283.0316839346963 1015.0759431498549 285.3228399368992Q1014.0010798401795 287.6139959391021 1012.2190696162439 289.3960061630377Q1010.4370593923084 291.17801638697335 1008.0893316369645 292.1963079435079Q1005.7698897581912 293.2145995000426 1003.111017360573 293.2145995000426L1003.111017360573 293.2145995000426Q1000.4521449629548 293.2145995000426 998.1609889607519 292.1963079435079Q995.8698329585488 291.17801638697335 994.0878227346134 289.3960061630377Q992.3058125106777 287.6139959391021 991.287520954143 285.3228399368992Q990.2692293976085 283.0316839346963 990.2692293976085 280.37281153707806L990.2692293976085 280.37281153707806Q990.2692293976085 277.74222501603026 991.287520954143 275.33792550754566Q992.3058125106777 272.96191187563153 994.0878227346134 271.1799016516959Q995.8698329585488 269.3978914277603 998.1609889607519 268.37959987122565Q1000.4521449629548 267.36130831469103 1003.111017360573 267.36130831469103L1003.111017360573 267.36130831469103Q1005.7698897581912 267.36130831469103 1008.0893316369645 268.37959987122565Q1010.4370593923084 269.3978914277603 1012.2190696162439 271.1799016516959Q1014.0010798401795 272.96191187563153 1015.0759431498549 275.33792550754566Q1016.1508064595303 277.74222501603026 1016.1508064595303 280.37281153707806ZM1046.0772638710205 265.9187286096003L1064.208510752651 265.9187286096003L1064.208510752651 415.9187320624661L1046.0772638710205 415.9187320624661L1046.0772638710205 265.9187286096003Z " fill="#ffffff" transform="matrix(0.8222073102718742,0,0,0.8222073102718742,0,19.694172652077413)"/></g></svg>